<svg width="73" height="73" viewBox="0 0 73 73" fill="none" xmlns="http://www.w3.org/2000/svg">
    <rect y="13" width="60" height="60" rx="30" fill="#2F45C5" />
    <g filter="url(#filter0_d_311_9319)">
        <mask id="mask0_311_9319" style="mask-type:alpha" maskUnits="userSpaceOnUse" x="13" y="25" width="34" height="36">
            <path fill-rule="evenodd" clip-rule="evenodd" d="M13.8008 25.6H46.2008V60.4H13.8008V25.6Z" fill="white" />
        </mask>
        <g mask="url(#mask0_311_9319)">
            <path fill-rule="evenodd" clip-rule="evenodd" d="M45.5699 43.6287C43.7133 37.7365 38.5745 33.6986 32.6387 32.9106C38.3189 31.6108 40.2784 33.7054 40.2784 33.7054C41.5852 27.9891 37.061 25.5999 37.061 25.5999C34.3001 27.3257 31.6783 31.0445 30.5542 32.7719C23.9328 32.7599 19.3491 37.2083 19.3491 37.2083C20.7222 33.1231 26.7876 31.5179 26.7876 31.5179C26.4143 25.1095 21.2673 26.0564 21.2673 26.0564C21.2673 26.0564 8.00646 44.5668 16.8297 54.5812C23.7847 62.475 35.2043 61.0983 40.5154 57.6955C44.3305 55.251 47.6227 50.1436 45.5699 43.6287Z" fill="white" />
        </g>
        <path opacity="0.150076" fill-rule="evenodd" clip-rule="evenodd" d="M32.718 35.1514C32.4393 35.0064 32.604 34.5781 32.9063 34.6611C37.0687 35.8054 45.7181 39.5235 43.2925 50.3618C42.4938 53.9305 39.3438 57.01 35.3212 57.5209C30.4411 58.1407 26.8841 56.1594 27.061 53.4398C27.5354 46.1407 40.3973 54.5299 39.3979 43.8398C39.0081 39.671 37.5038 37.6404 32.718 35.1514Z" fill="#446670" />
        <path fill-rule="evenodd" clip-rule="evenodd" d="M24.0244 44.3414C24.0277 44.3429 24.039 44.3543 24.0498 44.3649L24.0832 44.397C24.107 44.4193 24.1294 44.4417 24.1554 44.4638C24.2041 44.5094 24.2556 44.5537 24.3079 44.5974C24.3596 44.6412 24.4149 44.6824 24.4673 44.7255L24.6326 44.8456C24.8558 45.0019 25.093 45.1311 25.3344 45.2381C25.8182 45.4546 26.3324 45.549 26.851 45.5376C26.9139 45.5399 26.9852 45.5331 27.0547 45.5285L27.2635 45.5145C27.4012 45.4953 27.5405 45.4833 27.6769 45.4569C27.9528 45.4168 28.2211 45.3437 28.4889 45.2679C28.7537 45.1841 29.0148 45.0853 29.2662 44.9674C29.3938 44.9117 29.5156 44.8458 29.6361 44.7803C29.6954 44.7472 29.7558 44.7134 29.8114 44.6783C29.8401 44.6612 29.8688 44.6443 29.8947 44.6273L29.9333 44.6026C29.944 44.5958 29.9602 44.5843 29.9609 44.5861C30.1989 44.3691 30.5658 44.3887 30.7802 44.6296C30.9945 44.8706 30.9752 45.2417 30.737 45.4588L30.6747 45.5184L30.6214 45.5674C30.5863 45.5998 30.5516 45.6294 30.5172 45.6588C30.4472 45.7179 30.377 45.7712 30.3055 45.8251C30.1626 45.9295 30.0161 46.0272 29.8653 46.1157C29.5631 46.2923 29.2472 46.442 28.9205 46.5629C28.2633 46.7981 27.5782 46.9327 26.8754 46.9393C26.1451 46.9446 25.4009 46.7752 24.764 46.4256C24.4433 46.2562 24.1465 46.0491 23.8784 45.8135C23.7465 45.6925 23.6175 45.5698 23.499 45.435C23.4399 45.3678 23.3812 45.2998 23.3252 45.2277C23.2973 45.1928 23.2697 45.154 23.2424 45.1166L23.2007 45.0575L23.1535 44.9879C22.9952 44.755 23.0536 44.4363 23.2839 44.2763C23.4335 44.1722 23.6189 44.1608 23.7738 44.2294L24.0244 44.3414Z" fill="#1A2B31" />
        <path fill-rule="evenodd" clip-rule="evenodd" d="M38.0711 44.1439L38.2068 44.2182C38.2569 44.2461 38.3085 44.2732 38.3609 44.2996C38.4655 44.3527 38.5732 44.4006 38.6814 44.4464C38.897 44.5389 39.1172 44.6137 39.3357 44.6721C39.5549 44.7307 39.773 44.7693 39.9862 44.781C40.2005 44.8019 40.4061 44.7834 40.6063 44.7503C40.8048 44.7196 41.0044 44.6443 41.2051 44.5621C41.4048 44.47 41.6018 44.3566 41.7963 44.2283C41.9882 44.0948 42.1774 43.9486 42.3584 43.7887C42.4497 43.7096 42.5393 43.6272 42.6249 43.542C42.6686 43.4997 42.7098 43.4563 42.7514 43.4133L42.8648 43.2941L42.903 43.2538C43.1233 43.0223 43.4874 43.0154 43.7162 43.2383C43.9202 43.4369 43.9476 43.7512 43.7953 43.9811C43.7428 44.0605 43.7044 44.1158 43.6588 44.1795C43.6141 44.2398 43.5684 44.2993 43.5219 44.357C43.4291 44.4735 43.3326 44.5858 43.2322 44.6956C43.0297 44.9131 42.8103 45.1178 42.572 45.3064C42.332 45.4942 42.0698 45.661 41.789 45.8074C41.643 45.8735 41.5014 45.9456 41.3441 45.9946C41.2666 46.0203 41.1908 46.0498 41.111 46.0709L40.8683 46.1289C40.2138 46.2611 39.5525 46.1951 38.9641 46.0168C38.668 45.9288 38.385 45.8143 38.1154 45.6789C37.9816 45.6088 37.8501 45.5359 37.7214 45.4561C37.6571 45.4166 37.5929 45.3757 37.5293 45.3326C37.4635 45.2868 37.4089 45.2472 37.3285 45.1855C37.0499 44.9716 36.9956 44.5697 37.207 44.2879C37.3987 44.0324 37.7428 43.9633 38.0129 44.1118L38.0711 44.1439Z" fill="#1A2B31" />
        <path fill-rule="evenodd" clip-rule="evenodd" d="M33.8108 46.5349H36.1792C36.6303 46.5349 36.9959 46.9311 36.9959 47.4197V47.4813C36.9959 47.734 36.8962 47.9746 36.7221 48.1425L36.1343 48.5772C35.7009 48.9159 35.5528 49.3758 35.5424 49.7133H34.4477C34.4369 49.3615 34.4269 49.0315 33.9266 48.6274L33.2568 48.0698C33.0893 47.9023 32.9941 47.6667 32.9941 47.4197C32.9941 46.9311 33.3598 46.5349 33.8108 46.5349Z" fill="#1A2B31" />
        <path fill-rule="evenodd" clip-rule="evenodd" d="M38.5132 49.6151C38.1486 49.5954 37.8371 49.8754 37.8114 50.2424C37.8118 50.2405 37.8119 50.2427 37.8119 50.2443C37.8124 50.2456 37.8122 50.2499 37.8114 50.2556C37.8107 50.2659 37.8104 50.2759 37.808 50.289C37.8054 50.3131 37.7987 50.34 37.7935 50.3667C37.7803 50.4208 37.7625 50.4756 37.7403 50.5294C37.6957 50.6371 37.6338 50.7394 37.5524 50.8307C37.3971 51.0188 37.1599 51.1637 36.8836 51.2671C36.5993 51.3702 36.2798 51.4415 36.0094 51.4341C35.8709 51.4346 35.7448 51.4105 35.6337 51.3731C35.6054 51.3642 35.5813 51.3512 35.5541 51.3415C35.5345 51.3293 35.5113 51.3199 35.4925 51.3081L35.562 49.0315C35.5623 49.0203 35.5624 49.0072 35.562 48.9959C35.5518 48.6597 35.2583 48.3997 34.9205 48.4432C34.6258 48.481 34.4172 48.7559 34.4263 49.0563L34.492 51.2099C34.4325 51.2329 34.3728 51.2553 34.3112 51.2742C34.2365 51.3017 34.1578 51.316 34.0819 51.3382C34.005 51.3563 33.9272 51.3679 33.8505 51.3839C33.5413 51.4325 33.2343 51.4259 32.9479 51.3649C32.6614 51.3039 32.3904 51.1988 32.1507 51.0273C32.0241 50.9572 31.9172 50.8454 31.8028 50.7523L31.7604 50.7166L31.7219 50.673L31.645 50.5869L31.4905 50.4173L31.4407 50.3624C31.4368 50.3582 31.4327 50.354 31.4288 50.3497C31.1724 50.0835 30.7425 50.0624 30.4652 50.3063C30.1404 50.5918 30.1426 51.0895 30.4514 51.3729L30.6926 51.5946L30.8135 51.7038L30.8742 51.7582L30.9419 51.8068C31.125 51.934 31.2968 52.0706 31.5028 52.1668C31.8925 52.3859 32.3387 52.515 32.7795 52.5611C33.2221 52.6088 33.6638 52.5689 34.076 52.4619C34.178 52.4316 34.2808 52.4046 34.3807 52.3702C34.4793 52.3321 34.5799 52.301 34.6758 52.2561C34.6765 52.2558 34.6772 52.2555 34.6781 52.2551C34.8216 52.1946 34.9833 52.1991 35.1199 52.2739C35.1583 52.2949 35.1968 52.3143 35.2357 52.3324C35.4645 52.4357 35.7021 52.4949 35.9305 52.5162C36.1596 52.5392 36.3841 52.5356 36.5981 52.51C36.7055 52.4978 36.8127 52.4844 36.9148 52.4614C37.018 52.4425 37.1218 52.4212 37.2289 52.388C37.6497 52.2697 38.0893 52.0654 38.4445 51.7139C38.6239 51.543 38.778 51.3384 38.8967 51.113C38.9563 51.0003 39.0074 50.8824 39.0493 50.7589C39.0693 50.6964 39.0892 50.6342 39.1044 50.5669C39.1128 50.535 39.1198 50.499 39.1263 50.4632C39.1298 50.4463 39.133 50.4275 39.1358 50.4058C39.1386 50.3853 39.1416 50.3682 39.1447 50.3264C39.1645 49.9536 38.8817 49.6351 38.5132 49.6151Z" fill="#1A2B31" />
        <path fill-rule="evenodd" clip-rule="evenodd" d="M37.8121 50.2424C37.8119 50.2438 37.8116 50.2465 37.8109 50.2542C37.8111 50.2501 37.8119 50.2464 37.8121 50.2424Z" fill="#010202" />
    </g>
    <g filter="url(#filter1_d_311_9319)">
        <circle cx="46.5" cy="26.5" r="13.5" fill="white" />
    </g>
    <path d="M53.18 20.7478C50.306 20.7478 47.3275 18.1097 47.298 18.0833C47.1001 17.9056 46.7983 17.9056 46.6004 18.0833C46.5707 18.1099 43.6001 20.7478 40.7184 20.7478C40.4317 20.7478 40.1992 20.978 40.1992 21.2619V27.4194C40.1992 32.4076 43.9458 34.4008 46.764 35.4662C46.8237 35.4888 46.8864 35.5 46.9492 35.5C47.012 35.5 47.0748 35.4887 47.1344 35.4662C51.0859 33.9724 53.6992 31.6423 53.6992 27.4194V21.2619C53.6992 20.978 53.4667 20.7478 53.18 20.7478Z" fill="#4CD964" />
    <path fill-rule="evenodd" clip-rule="evenodd" d="M43.3145 26.725C43.3145 24.7404 44.9449 23.1259 46.9491 23.1259C48.9532 23.1259 50.5837 24.7404 50.5837 26.725C50.5837 28.7095 48.9532 30.3241 46.9491 30.3241C44.9449 30.3241 43.3145 28.7095 43.3145 26.725ZM46.797 28.1168L48.3547 26.5744C48.5575 26.3736 48.5575 26.048 48.3547 25.8472C48.1519 25.6464 47.8232 25.6464 47.6204 25.8472L46.4299 27.0261L46.2778 26.8756C46.075 26.6748 45.7462 26.6748 45.5435 26.8756C45.3407 27.0764 45.3407 27.4019 45.5435 27.6027L46.0627 28.1168C46.164 28.2173 46.2969 28.2675 46.4298 28.2675C46.5627 28.2675 46.6956 28.2172 46.797 28.1168Z" fill="url(#paint0_linear_311_9319)" />
    <defs>
        <filter id="filter0_d_311_9319" x="7.80078" y="19.6" width="44.4004" height="46.8" filterUnits="userSpaceOnUse" color-interpolation-filters="sRGB">
            <feFlood flood-opacity="0" result="BackgroundImageFix" />
            <feColorMatrix in="SourceAlpha" type="matrix" values="0 0 0 0 0 0 0 0 0 0 0 0 0 0 0 0 0 0 127 0" result="hardAlpha" />
            <feOffset />
            <feGaussianBlur stdDeviation="3" />
            <feColorMatrix type="matrix" values="0 0 0 0 0.0605272 0 0 0 0 0.0902235 0 0 0 0 0.263002 0 0 0 0.101214 0" />
            <feBlend mode="normal" in2="BackgroundImageFix" result="effect1_dropShadow_311_9319" />
            <feBlend mode="normal" in="SourceGraphic" in2="effect1_dropShadow_311_9319" result="shape" />
        </filter>
        <filter id="filter1_d_311_9319" x="20" y="0" width="53" height="53" filterUnits="userSpaceOnUse" color-interpolation-filters="sRGB">
            <feFlood flood-opacity="0" result="BackgroundImageFix" />
            <feColorMatrix in="SourceAlpha" type="matrix" values="0 0 0 0 0 0 0 0 0 0 0 0 0 0 0 0 0 0 127 0" result="hardAlpha" />
            <feOffset />
            <feGaussianBlur stdDeviation="6.5" />
            <feColorMatrix type="matrix" values="0 0 0 0 0.0605272 0 0 0 0 0.0902235 0 0 0 0 0.263002 0 0 0 0.102951 0" />
            <feBlend mode="normal" in2="BackgroundImageFix" result="effect1_dropShadow_311_9319" />
            <feBlend mode="normal" in="SourceGraphic" in2="effect1_dropShadow_311_9319" result="shape" />
        </filter>
        <linearGradient id="paint0_linear_311_9319" x1="50.5739" y1="30.3241" x2="50.5739" y2="23.1453" gradientUnits="userSpaceOnUse">
            <stop stop-color="#C3FFE8" />
            <stop offset="1" stop-color="#F0FFF4" />
        </linearGradient>
    </defs>
</svg>