<svg width="30" height="30" viewBox="0 0 30 30" fill="none" xmlns="http://www.w3.org/2000/svg">
<path d="M9.88429 21.0651C9.86716 21.0675 9.85116 21.0781 9.83716 21.1002C9.78129 21.1892 9.92004 22.0256 10.3184 22.4782C10.7168 22.9324 11.5979 22.773 12.2108 22.8691C12.8235 22.9651 13.06 23.4275 13.4724 24.0224C14.1074 25.0545 15.0039 25.0795 15.0039 25.0795C15.0039 25.0795 15.9004 25.0545 16.5354 24.0224C16.9478 23.4275 17.1844 22.9651 17.7972 22.8691C18.4099 22.773 19.2914 22.9324 19.6898 22.4782C20.0882 22.0256 20.2268 21.1892 20.1709 21.1002C20.1152 21.0114 20.027 21.1069 19.9609 21.1824C19.6752 21.509 19.5303 21.7275 18.8777 21.9045C18.2252 22.0816 17.5792 21.9132 17.5792 21.9132C17.2972 22.1624 17.0662 22.3359 16.5315 22.354L15.0039 22.3589L13.4764 22.354C12.9417 22.3359 12.7109 22.1624 12.4289 21.9132C12.4289 21.9132 11.7829 22.0816 11.1304 21.9045C10.4779 21.7275 10.3329 21.509 10.0472 21.1824C9.99766 21.1257 9.93579 21.058 9.88429 21.0651Z" fill="url(#paint0_linear_1331_21519)"/>
<path d="M3.65038 4.87837C2.45276 4.70949 -3.43187 10.9281 8.36413 15.0884C9.58351 15.519 12.3316 16.2689 13.2488 17.8444C12.6044 17.9889 12.1829 18.0787 11.4519 17.8176C10.3854 17.4366 10.6439 16.3067 10.666 16.2982L5.02876 14.1525C5.02876 14.1525 6.00026 15.2975 7.36351 16.2982C8.72676 17.2991 11.1621 18.3276 12.1474 18.9086C13.1328 19.488 13.4084 20.4594 13.4084 20.4594C13.4084 20.4594 13.1124 20.4031 12.4575 20.385C11.8025 20.3669 11.1889 19.9399 11.0459 19.5531C10.9029 19.1665 10.9936 18.6159 10.9883 18.6051L9.58951 17.9806C9.58951 17.9806 9.58963 18.9521 9.30613 19.2712C9.02263 19.5889 7.68476 18.7006 7.33638 18.5149C7.23238 18.4595 7.12763 18.4751 7.14638 18.6002C7.16363 18.7136 7.82063 19.6832 8.41551 20.2131C9.00876 20.7414 9.77276 20.5565 9.95338 20.5495C10.2476 20.5381 10.8668 20.5511 11.4736 20.9165C12.1738 21.3381 12.2649 21.5894 12.5129 21.8182C12.6899 21.9815 12.9779 22.2434 13.4711 22.2434L15.0039 22.2565L16.5366 22.2434C17.0299 22.2434 17.3181 21.9815 17.4951 21.8182C17.743 21.5894 17.8343 21.3381 18.5344 20.9165C19.1413 20.5511 19.7604 20.5381 20.0546 20.5495C20.2353 20.5565 20.9993 20.7414 21.5925 20.2131C22.1874 19.6832 22.8441 18.7136 22.8613 18.6002C22.8801 18.4751 22.7756 18.4595 22.6716 18.5149C22.3233 18.7006 20.9854 19.5889 20.7019 19.2712C20.4184 18.9521 20.4184 17.9806 20.4184 17.9806L19.0198 18.6051C19.0144 18.6159 19.1051 19.1665 18.9621 19.5531C18.8191 19.9399 18.2051 20.3669 17.5503 20.385C16.8954 20.4031 16.5996 20.4594 16.5996 20.4594C16.5996 20.4594 16.8753 19.488 17.8605 18.9086C18.8459 18.3276 21.2811 17.2991 22.6445 16.2982C24.0078 15.2975 24.979 14.1525 24.979 14.1525L19.342 16.2982C19.3641 16.3067 19.6226 17.4366 18.5561 17.8176C17.8251 18.0787 17.4036 17.9889 16.7593 17.8444C17.6764 16.2689 20.4245 15.519 21.6438 15.0884C33.8204 10.794 27.1571 4.30612 26.257 4.91499C25.9921 5.09474 26.1796 5.36874 26.1796 5.36874C26.1796 5.36874 27.0936 6.89324 26.3904 8.28437C25.687 9.67562 22.7919 10.4761 21.7756 10.3661C20.764 10.2577 20.3351 9.93787 20.332 9.93012C19.9758 9.47774 19.5676 8.65837 18.8891 9.12612C18.0913 9.67774 17.1819 9.50312 16.4863 8.75024C15.7891 7.99574 15.0039 7.70237 15.0039 7.70237C15.0039 7.70237 14.2186 7.99574 13.5214 8.75024C12.8259 9.50312 11.9164 9.67774 11.1186 9.12612C10.4401 8.65837 10.0324 9.47774 9.67601 9.93012C9.67288 9.93787 9.24401 10.2576 8.23238 10.3661C7.21613 10.4761 4.32101 9.67562 3.61763 8.28437C2.91438 6.89324 3.82838 5.36887 3.82838 5.36887C3.82838 5.36887 4.01563 5.09474 3.75076 4.91499C3.72055 4.89525 3.68621 4.88272 3.65038 4.87837ZM9.77701 11.5796C9.77701 11.5796 10.575 11.5655 11.9383 11.9714C13.3 12.3775 15.0038 14.0037 15.0038 14.0037C15.0038 14.0037 16.7079 12.3775 18.0696 11.9715C19.4329 11.5656 20.2308 11.5796 20.2308 11.5796C20.2308 11.5796 18.4181 11.9715 16.9108 12.9134C15.4034 13.8552 15.0038 15.0157 15.0038 15.0157C15.0038 15.0157 14.6041 13.8552 13.0968 12.9134C11.5894 11.9715 9.77688 11.5796 9.77688 11.5796H9.77701Z" fill="url(#paint1_linear_1331_21519)"/>
<path d="M3.42929 4.90375C1.89079 5.35162 -2.81871 11.1444 8.36429 15.0884C9.58354 15.519 12.3318 16.269 13.2488 17.8444C12.6045 17.989 12.183 18.0787 11.452 17.8176C10.3855 17.4366 10.644 16.3067 10.666 16.2982L5.02892 14.1525C5.02892 14.1525 6.00029 15.2975 7.36354 16.2982C8.72692 17.2991 11.1623 18.3276 12.1475 18.9086C13.1328 19.488 13.4085 20.4594 13.4085 20.4594C13.4085 20.4594 13.1125 20.4031 12.4575 20.385C11.8027 20.3669 11.189 19.9399 11.046 19.5531C10.9029 19.1664 10.9938 18.6157 10.9884 18.6049L9.58967 17.9806C9.58967 17.9806 9.58967 18.952 9.30629 19.2712C9.02267 19.5889 7.68492 18.7006 7.33654 18.5149C7.23254 18.4595 7.12779 18.4751 7.14654 18.6002C7.16367 18.7136 7.82067 19.6832 8.41567 20.2131C9.00892 20.7414 9.77279 20.5565 9.95342 20.5495C10.2477 20.538 10.8667 20.551 11.4734 20.9165C12.1737 21.3381 12.265 21.5894 12.513 21.8182C12.6899 21.9815 12.978 22.2434 13.4713 22.2434L14.9928 22.2565H15.004L16.5254 22.2434C17.0187 22.2434 17.3068 21.9815 17.4837 21.8182C17.7317 21.5894 17.823 21.3381 18.5233 20.9165C19.13 20.551 19.749 20.538 20.0433 20.5495C20.2239 20.5565 20.988 20.7414 21.5814 20.2131C22.1763 19.6832 22.833 18.7136 22.8502 18.6002C22.869 18.4751 22.7643 18.4595 22.6603 18.5149C22.3119 18.7006 20.974 19.5889 20.6905 19.2712C20.407 18.952 20.407 17.9806 20.407 17.9806L19.0084 18.6049C19.0029 18.6157 19.0938 19.1664 18.9508 19.5531C18.8078 19.9399 18.194 20.3669 17.5392 20.385C16.8843 20.4031 16.5882 20.4594 16.5882 20.4594C16.5882 20.4594 16.8642 19.488 17.8494 18.9086C18.8348 18.3276 21.2698 17.2991 22.6332 16.2982C23.9964 15.2976 24.9678 14.1525 24.9678 14.1525L19.3307 16.2982C19.3528 16.3067 19.6112 17.4366 18.5448 17.8176C17.8137 18.0787 17.3922 17.989 16.7479 17.8444C17.6649 16.269 20.4132 15.519 21.6324 15.0884C32.8154 11.1444 28.1062 5.35162 26.5677 4.90375C26.5677 4.90375 28.1278 6.93337 27.8894 8.91962C27.6583 10.9059 23.729 12.9067 20.4354 13.7159C19.5067 13.9442 15.1522 15.82 15 17.9375C14.8479 15.82 10.49 13.9442 9.56129 13.7157C6.26779 12.9067 2.33879 10.9059 2.10754 8.91962C1.86917 6.93337 3.42929 4.90375 3.42929 4.90375Z" fill="url(#paint2_linear_1331_21519)"/>
<path d="M13.4758 22.354C13.396 23.7006 15.0039 24.5161 15.0039 24.5161C15.0039 24.5161 16.612 23.7006 16.5321 22.354L15.0039 22.3589L13.4758 22.354Z" fill="url(#paint3_linear_1331_21519)"/>
<path fill-rule="evenodd" clip-rule="evenodd" d="M12.9424 19.9941C12.8665 19.8121 12.455 19.093 11.4978 18.8128C11.3928 18.782 11.2233 18.7623 11.181 19.0043C11.1439 19.217 11.2148 19.4955 11.3451 19.6643C11.5836 19.9728 11.8555 20.1118 12.1895 20.1755C12.3321 20.2026 12.541 20.2466 12.7178 20.2344C12.7853 20.2307 12.8513 20.2127 12.9114 20.1816C12.992 20.1406 12.9789 20.0816 12.9424 19.9941ZM12.7488 17.5423C12.4946 17.2509 12.1406 16.7679 11.2096 16.4185C11.1071 16.3799 10.9351 16.368 10.8929 16.61C10.8558 16.8228 10.9266 17.1013 11.0571 17.27C11.2955 17.5785 11.5669 17.7205 11.9014 17.7813C12.0514 17.8084 12.1714 17.8404 12.4296 17.8401C12.5018 17.84 12.575 17.8271 12.6419 17.8151C12.8978 17.7693 12.8349 17.641 12.7488 17.5423ZM17.0656 19.9941C17.1415 19.8121 17.553 19.093 18.5103 18.8128C18.6154 18.782 18.7848 18.7623 18.827 19.0043C18.8641 19.217 18.7934 19.4955 18.6629 19.6643C18.4245 19.9728 18.1525 20.1118 17.8186 20.1755C17.6759 20.2026 17.467 20.2466 17.2904 20.2344C17.2228 20.2307 17.1568 20.2127 17.0966 20.1816C17.016 20.1406 17.0293 20.0816 17.0656 19.9941ZM17.2591 17.5423C17.5134 17.2509 17.8674 16.7679 18.7983 16.4185C18.9009 16.3799 19.0729 16.368 19.1151 16.61C19.1523 16.8228 19.0814 17.1013 18.9509 17.27C18.7125 17.5785 18.4411 17.7205 18.1066 17.7813C17.9566 17.8084 17.8365 17.8404 17.5784 17.8401C17.5063 17.84 17.433 17.8271 17.366 17.8151C17.1103 17.7693 17.1731 17.641 17.2591 17.5423Z" fill="#6E93E5"/>
<path d="M3.40369 7.66687C3.40369 7.66687 3.29069 10.7854 7.90269 11.1604C8.46794 11.2085 9.08169 11.1427 9.62394 10.5825C10.4423 9.73674 10.3658 9.51974 10.9127 9.73037C11.4611 9.94112 12.1801 10.1996 13.0089 9.46374C13.8376 8.72949 14.2867 8.55975 15.0039 8.55975C15.7212 8.55975 16.1706 8.72949 16.9993 9.46387C17.8282 10.1996 18.5471 9.94112 19.0956 9.73037C19.6423 9.51974 19.5659 9.73674 20.3843 10.5825C20.9266 11.1427 21.5402 11.2085 22.1056 11.1604C26.7174 10.7854 26.6043 7.66687 26.6043 7.66687C26.5613 7.88156 26.4894 8.08945 26.3907 8.28487C25.6874 9.67599 22.7951 10.09 21.7787 9.98137C20.7672 9.87325 20.7773 9.49049 20.4557 8.95262C20.1194 8.39037 19.5681 8.42274 18.8894 8.89062C18.0917 9.44212 17.1791 9.20987 16.4834 8.45687C15.7863 7.7025 15.0039 7.70237 15.0039 7.70237C15.0039 7.70237 14.2218 7.7025 13.5247 8.457C12.8292 9.20987 11.9166 9.44199 11.1187 8.89062C10.4401 8.42274 9.88869 8.39037 9.55244 8.95262C9.23081 9.49049 9.24081 9.87325 8.22931 9.98137C7.21294 10.0901 4.32081 9.67599 3.61744 8.28487C3.51861 8.08947 3.4467 7.88158 3.40369 7.66687Z" fill="url(#paint4_linear_1331_21519)"/>
<defs>
<linearGradient id="paint0_linear_1331_21519" x1="9.64904" y1="23.1295" x2="20.384" y2="23.1295" gradientUnits="userSpaceOnUse">
<stop stop-color="#3B60B2"/>
<stop offset="0.497" stop-color="#3B60B2"/>
<stop offset="0.499" stop-color="#4A78DF"/>
<stop offset="1" stop-color="#4A78DF"/>
</linearGradient>
<linearGradient id="paint1_linear_1331_21519" x1="26.3796" y1="11.0117" x2="3.60963" y2="11.0117" gradientUnits="userSpaceOnUse">
<stop stop-color="#253C70"/>
<stop offset="0.499" stop-color="#34549C"/>
<stop offset="0.5" stop-color="#3B60B2"/>
<stop offset="1" stop-color="#2C4886"/>
</linearGradient>
<linearGradient id="paint2_linear_1331_21519" x1="24.1632" y1="16.0935" x2="6.24792" y2="16.0935" gradientUnits="userSpaceOnUse">
<stop stop-color="#34549C"/>
<stop offset="0.512" stop-color="#4A78DF"/>
<stop offset="1" stop-color="#3B60B2"/>
</linearGradient>
<linearGradient id="paint3_linear_1331_21519" x1="13.2416" y1="23.192" x2="16.8118" y2="23.2105" gradientUnits="userSpaceOnUse">
<stop stop-color="#436CC9"/>
<stop offset="0.494" stop-color="#4A78DF"/>
<stop offset="1" stop-color="#4A78DF"/>
</linearGradient>
<linearGradient id="paint4_linear_1331_21519" x1="4.10831" y1="7.70237" x2="25.8072" y2="7.70237" gradientUnits="userSpaceOnUse">
<stop stop-color="#1E3059"/>
<stop offset="0.502" stop-color="#253C70"/>
<stop offset="1" stop-color="#162443"/>
</linearGradient>
</defs>
</svg>
